<?xml version="1.0" encoding="utf-8"?>
<!-- Generator: Adobe Illustrator 23.0.3, SVG Export Plug-In . SVG Version: 6.00 Build 0)  -->
<svg version="1.1" id="Layer_1" xmlns="http://www.w3.org/2000/svg" xmlns:xlink="http://www.w3.org/1999/xlink" x="0px" y="0px"
	 viewBox="0 0 1000 700" style="enable-background:new 0 0 1000 700;" xml:space="preserve">
<style type="text/css">
	.st0{fill:#76A52D;}
	.st1{fill:#FFFFFF;}
	.st2{fill:#8CC63F;}
	.st3{opacity:0.2;}
	.st4{opacity:0.3;}
</style>
<g>
	<g>
		<g>
			<path class="st0" d="M757.1,174.9v290.4l29.1-11.2c8.3-3.2,13.8-11.1,13.8-20V191.8L757.1,174.9z"/>
		</g>
	</g>
	<g>
		<g>
			<g>
				<path class="st1" d="M284.2,231c27.2,0.2,43,6.5,47.3,18.8c4.3,12.3,6.4,28.8,6.1,49.4c0,1.9,0,3.9,0,5.8c0,1.9,0,4,0,6.1
					l-48-0.4c0-1.2,0-2.5,0-4c0-1.4,0-2.8,0-4c0-17.6-1.4-27.8-4.2-30.7c-2.8-2.9-12.8-4.3-30.1-4.3c-1,0-1.9,0-2.7,0
					c-0.8,0-1.7,0-2.7,0v153.4h-50.2V231H284.2z"/>
			</g>
		</g>
		<g>
			<g>
				<path class="st1" d="M409.5,417c-10.9-2.8-20.6-8.7-28.9-17.7c-6.7-7.3-11.5-15.6-14.5-25c-3-9.4-4.8-19-5.5-28.8
					c0-1,0-2.1,0-3.1c0-1,0-2.1,0-3.1c0-1.5,0-2.9,0-4.2c0-1.4,0.1-2.8,0.3-4.2c0.6-9.4,2.4-18.6,5.5-27.7c3-9.1,7.8-17.2,14.2-24.2
					c8.3-9.2,18-15.2,28.9-18c10.9-2.8,22.3-4.2,33.9-4.2l63.5-0.3v34.4h-57.6c-12.1,0.2-21.8,2-29.1,5.5
					c-7.3,3.4-11.2,12-11.6,25.8l98.2-0.3v34.4h-98.2c0.4,14.4,4.1,23.1,11,26.3c6.9,3.1,16.7,4.7,29.4,4.7l57.9-0.3v34.4h-63.5
					C431.7,421.2,420.4,419.8,409.5,417z"/>
			</g>
		</g>
	</g>
	<g>
		<g>
			<path class="st2" d="M222.4,481.4c1.3,0,2.5,0.3,3.6,0.8c1.1,0.5,2.1,1.2,3,2c0.8,0.8,1.5,1.8,2,3c0.5,1.1,0.7,2.4,0.7,3.7v7.2
				c0,1.1-0.2,2.2-0.6,3.2c-0.4,1-0.9,1.9-1.6,2.7c-0.7,0.8-1.5,1.5-2.4,2.1c-0.9,0.6-1.9,0.9-2.9,1.2l11.3,17
				c0,0.1,0.1,0.2,0.1,0.3c0,0.2-0.1,0.4-0.3,0.5c-0.2,0.1-0.4,0.2-0.7,0.2h-5.2c-0.3,0-0.5-0.1-0.5-0.2c-0.1-0.2-0.2-0.4-0.4-0.7
				l-9.1-13.7c-0.5-0.7-1.1-1.4-1.7-2c-0.7-0.6-1.5-1-2.4-1.1h-8.1c-0.6,0-0.9,0.3-0.9,0.9v15.9c0,0.6-0.3,0.9-0.9,0.9h-4.4
				c-0.6,0-0.9-0.3-0.9-0.9v-33.4c0-1.3,0.2-2.5,0.7-3.7c0.5-1.1,1.2-2.1,2-3c0.8-0.8,1.8-1.5,3-2s2.4-0.8,3.7-0.8H222.4z
				 M225.5,490.7c0-0.9-0.3-1.6-0.9-2.2c-0.6-0.6-1.3-0.9-2.2-0.9h-13.1c-0.9,0-1.6,0.3-2.2,0.9c-0.6,0.6-0.9,1.3-0.9,2.2v9.4
				c0,0.6,0.3,0.9,0.9,0.9h15.3c0.9,0,1.6-0.3,2.2-0.9c0.6-0.6,0.9-1.3,0.9-2.2V490.7z"/>
		</g>
		<g>
			<path class="st2" d="M283.1,518.8c0.6,0,0.9,0.3,0.9,0.9v4.4c0,0.6-0.3,0.9-0.9,0.9h-18.5c-1.3,0-2.5-0.2-3.6-0.7
				c-1.1-0.5-2.1-1.2-3-2c-0.9-0.8-1.5-1.8-2-3c-0.5-1.1-0.7-2.4-0.7-3.6v-25c0-1.3,0.2-2.5,0.7-3.7c0.5-1.1,1.1-2.1,2-3
				c0.9-0.8,1.8-1.5,3-2c1.1-0.5,2.3-0.8,3.6-0.8h18.5c0.6,0,0.9,0.3,0.9,0.9v4.4c0,0.6-0.3,0.9-0.9,0.9h-18.5
				c-0.9,0-1.6,0.3-2.2,0.9c-0.6,0.6-0.9,1.4-0.9,2.2v8.5c0,0.6,0.3,0.9,0.9,0.9h20.6c0.6,0,0.9,0.3,0.9,0.9v4.4
				c0,0.6-0.3,0.9-0.9,0.9h-20.6c-0.6,0-0.9,0.3-0.9,0.9v8.4c0,0.8,0.3,1.6,0.9,2.2c0.6,0.6,1.3,0.9,2.2,0.9H283.1z"/>
		</g>
		<g>
			<path class="st2" d="M334.2,487.6h-10.9c-0.6,0-0.9,0.3-0.9,0.9v35.6c0,0.6-0.3,0.9-0.9,0.9h-4.4c-0.6,0-0.9-0.3-0.9-0.9v-35.6
				c0-0.6-0.3-0.9-0.9-0.9h-10.9c-0.6,0-0.9-0.3-0.9-0.9v-4.4c0-0.6,0.3-0.9,0.9-0.9h30c0.6,0,0.9,0.3,0.9,0.9v4.4
				C335.2,487.3,334.9,487.6,334.2,487.6z"/>
		</g>
		<g>
			<path class="st2" d="M377.6,481.4c1.3,0,2.5,0.3,3.6,0.8c1.1,0.5,2.1,1.2,3,2c0.8,0.8,1.5,1.8,2,3c0.5,1.1,0.7,2.4,0.7,3.7v33.4
				c0,0.6-0.3,0.9-0.9,0.9h-4.4c-0.6,0-0.9-0.3-0.9-0.9v-14.7c0-0.6-0.3-0.9-0.9-0.9h-17.5c-0.6,0-0.9,0.3-0.9,0.9v14.7
				c0,0.6-0.3,0.9-0.9,0.9h-4.4c-0.6,0-0.9-0.3-0.9-0.9v-33.4c0-1.3,0.2-2.5,0.7-3.7c0.5-1.1,1.2-2.1,2-3c0.8-0.8,1.8-1.5,3-2
				c1.1-0.5,2.4-0.8,3.7-0.8H377.6z M379.8,502.3c0.6,0,0.9-0.3,0.9-0.9v-10.6c0-0.9-0.3-1.6-0.9-2.2c-0.6-0.6-1.3-0.9-2.2-0.9
				h-13.1c-0.9,0-1.6,0.3-2.2,0.9c-0.6,0.6-0.9,1.3-0.9,2.2v10.6c0,0.6,0.3,0.9,0.9,0.9H379.8z"/>
		</g>
		<g>
			<path class="st2" d="M417.5,482.3v41.8c0,0.6-0.3,0.9-0.9,0.9h-4.4c-0.6,0-0.9-0.3-0.9-0.9v-41.8c0-0.6,0.3-0.9,0.9-0.9h4.4
				C417.2,481.4,417.5,481.7,417.5,482.3z"/>
		</g>
		<g>
			<path class="st2" d="M469.6,525.1h-18.4c-1.3,0-2.5-0.2-3.6-0.7c-1.1-0.5-2.1-1.2-3-2c-0.9-0.8-1.5-1.8-2-3
				c-0.5-1.1-0.7-2.4-0.7-3.6v-33.4c0-0.6,0.3-0.9,0.9-0.9h4.4c0.6,0,0.9,0.3,0.9,0.9v33.4c0,0.8,0.3,1.6,0.9,2.2
				c0.6,0.6,1.3,0.9,2.2,0.9h18.4c0.6,0,0.9,0.3,0.9,0.9v4.4C470.5,524.8,470.2,525.1,469.6,525.1z"/>
		</g>
		<g>
			<path class="st2" d="M555.4,481.4c0.6,0,0.9,0.3,0.9,0.9v33.4c0,1.3-0.2,2.5-0.7,3.6c-0.5,1.1-1.2,2.1-2,3c-0.8,0.8-1.8,1.5-3,2
				c-1.1,0.5-2.4,0.7-3.6,0.7h-13.1c-1.3,0-2.5-0.2-3.7-0.7c-1.1-0.5-2.1-1.2-3-2c-0.8-0.8-1.5-1.8-2-3c-0.5-1.1-0.8-2.4-0.8-3.6
				v-25c0-1.3,0.2-2.5,0.8-3.7c0.5-1.1,1.2-2.1,2-3c0.8-0.8,1.8-1.5,3-2c1.1-0.5,2.4-0.8,3.7-0.8H555.4z M533.9,487.6
				c-0.9,0-1.6,0.3-2.2,0.9c-0.6,0.6-0.9,1.3-0.9,2.2v25c0,0.9,0.3,1.6,0.9,2.2c0.6,0.6,1.3,0.9,2.2,0.9H547c0.9,0,1.6-0.3,2.2-0.9
				c0.6-0.6,0.9-1.3,0.9-2.2v-27.1c0-0.6-0.3-0.9-0.9-0.9H533.9z"/>
		</g>
		<g>
			<path class="st2" d="M611.9,482.3v41.8c0,0.6-0.3,0.9-0.9,0.9h-6.3c-0.5,0-0.9-0.2-1.1-0.6l-16.3-31.8c-0.2-0.3-0.4-0.5-0.6-0.5
				c-0.2,0-0.3,0.3-0.3,0.8v31.2c0,0.6-0.3,0.9-0.9,0.9H581c-0.6,0-0.9-0.3-0.9-0.9v-41.8c0-0.6,0.3-0.9,0.9-0.9h6.3
				c0.5,0,0.9,0.2,1.1,0.6l16.3,31.8c0.2,0.3,0.3,0.5,0.5,0.5c0.2,0,0.4-0.3,0.4-0.8v-31.2c0-0.6,0.3-0.9,0.9-0.9h4.4
				C611.5,481.4,611.9,481.7,611.9,482.3z"/>
		</g>
		<g>
			<path class="st2" d="M663.3,525.1h-18.4c-1.3,0-2.5-0.2-3.6-0.7c-1.1-0.5-2.1-1.2-3-2s-1.5-1.8-2-3c-0.5-1.1-0.7-2.4-0.7-3.6
				v-33.4c0-0.6,0.3-0.9,0.9-0.9h4.4c0.6,0,0.9,0.3,0.9,0.9v33.4c0,0.8,0.3,1.6,0.9,2.2c0.6,0.6,1.3,0.9,2.2,0.9h18.4
				c0.6,0,0.9,0.3,0.9,0.9v4.4C664.2,524.8,663.9,525.1,663.3,525.1z"/>
		</g>
		<g>
			<path class="st2" d="M691.7,482.3v41.8c0,0.6-0.3,0.9-0.9,0.9h-4.4c-0.6,0-0.9-0.3-0.9-0.9v-41.8c0-0.6,0.3-0.9,0.9-0.9h4.4
				C691.4,481.4,691.7,481.7,691.7,482.3z"/>
		</g>
		<g>
			<path class="st2" d="M747.8,482.3v41.8c0,0.6-0.3,0.9-0.9,0.9h-6.3c-0.5,0-0.9-0.2-1.1-0.6l-16.3-31.8c-0.2-0.3-0.4-0.5-0.6-0.5
				c-0.2,0-0.3,0.3-0.3,0.8v31.2c0,0.6-0.3,0.9-0.9,0.9h-4.4c-0.6,0-0.9-0.3-0.9-0.9v-41.8c0-0.6,0.3-0.9,0.9-0.9h6.3
				c0.5,0,0.9,0.2,1.1,0.6l16.3,31.8c0.2,0.3,0.3,0.5,0.5,0.5c0.2,0,0.4-0.3,0.4-0.8v-31.2c0-0.6,0.3-0.9,0.9-0.9h4.4
				C747.5,481.4,747.8,481.7,747.8,482.3z"/>
		</g>
		<g>
			<path class="st2" d="M799.3,518.8c0.6,0,0.9,0.3,0.9,0.9v4.4c0,0.6-0.3,0.9-0.9,0.9h-18.5c-1.3,0-2.5-0.2-3.6-0.7
				c-1.1-0.5-2.1-1.2-3-2s-1.5-1.8-2-3c-0.5-1.1-0.7-2.4-0.7-3.6v-25c0-1.3,0.2-2.5,0.7-3.7c0.5-1.1,1.1-2.1,2-3s1.8-1.5,3-2
				c1.1-0.5,2.3-0.8,3.6-0.8h18.5c0.6,0,0.9,0.3,0.9,0.9v4.4c0,0.6-0.3,0.9-0.9,0.9h-18.5c-0.9,0-1.6,0.3-2.2,0.9
				c-0.6,0.6-0.9,1.4-0.9,2.2v8.5c0,0.6,0.3,0.9,0.9,0.9h20.6c0.6,0,0.9,0.3,0.9,0.9v4.4c0,0.6-0.3,0.9-0.9,0.9h-20.6
				c-0.6,0-0.9,0.3-0.9,0.9v8.4c0,0.8,0.3,1.6,0.9,2.2c0.6,0.6,1.3,0.9,2.2,0.9H799.3z"/>
		</g>
	</g>
	<g>
		<path class="st2" d="M534.1,204.3v89.8c4.8-12,12-22.8,21.5-32.5c8-8.3,17.5-15.4,28.4-21.3c0.5-2.6,1.1-5.1,1.8-7.6
			c1.4-4.9,3-9.9,5.6-14.3c-0.1-0.4-0.1-0.8-0.1-1.3c0-4.8,3.3-8.8,7.4-8.8s7.4,3.9,7.4,8.8c0,4.8-3.3,8.8-7.4,8.8
			c-0.8,0-1.6-0.2-2.3-0.4c-1.5,2.7-2.5,6.1-3.4,9.2c-0.1,0.4-0.2,0.8-0.3,1.2c12.3-5.7,24.9-9.6,37.9-11.6
			c12.7-2,25.1-1.8,37.3,0.5c0.3-1,0.5-1.9,0.9-2.9c1.8-5.5,4.6-9.6,8-12c0-0.3-0.1-0.7-0.1-1.1c0-4.8,3.3-8.8,7.4-8.8
			c4.1,0,7.4,3.9,7.4,8.8c0,4.8-3.3,8.8-7.4,8.8c-1.3,0-2.5-0.4-3.6-1.1c-1.9,1.5-3.5,4.1-4.7,7.8c-0.2,0.8-0.5,1.5-0.7,2.3
			c11.6,3.4,21.6,9.3,30,17.6c9.7,9.8,16.9,22.2,21.7,37.2c4.8,15.2,7.2,31.1,7.2,47.6c0,16.5-2.4,32.4-7.2,47.7
			c-4.8,15.1-12.1,27.7-21.7,37.6V414c-9.4,9.7-20.7,16.2-34,19.5c-13.2,3.1-26.9,3.7-41,1.7c-14.1-1.9-27.7-6-40.8-12.1
			c-13.1-5.9-24.4-13.7-33.8-23.3c-9.5-9.4-16.7-20.1-21.5-32.1V431c0,10.3,8,18.9,18.3,19.6l204.7,14.7V174.9L534.1,204.3z"/>
		<path class="st2" d="M661.7,277.2c-0.1,0.5-0.3,1-0.5,1.5c-0.6,1.8-1.3,3.6-2.1,5.3c-6,12.7-20.3,25.5-37.3,23.7
			c-8.6-0.9-16.6-5.5-22.4-12.2c-2.1-2.4-3.8-5-5.2-7.9c0.4-0.4,0.8-0.8,1.2-1.3c0.2-0.2,0.4-0.4,0.6-0.6c0.3-0.3,0.7-0.7,1-1
			c0.1-0.1,0.2-0.2,0.3-0.3c0.4-0.4,0.7-0.7,1.1-1c0.3-0.2,0.5-0.5,0.8-0.7c0.4-0.3,0.8-0.7,1.2-1c0.1-0.1,0.2-0.1,0.3-0.2
			c0.4-0.4,0.9-0.7,1.3-1c0.7-0.5,1.4-1,2.1-1.5c9.9-7.1,20.5-10.8,31.9-10.8c2.2,0.1,4.6,0.2,7.1,0.5c2.5,0.3,4.8,0.9,7.1,1.7
			c0.6,0.2,1.1,0.4,1.6,0.7c0.4,0.2,0.9,0.4,1.3,0.6c0.2,0.1,0.4,0.2,0.6,0.3c0.4,0.2,0.8,0.4,1.2,0.6c0.5,0.3,1,0.5,1.5,0.8
			c0.5,0.3,1,0.6,1.4,0.9h0c0.5,0.3,0.9,0.6,1.4,0.9c0.4,0.3,0.9,0.6,1.3,0.9c0,0,0.1,0,0.1,0.1c0.4,0.3,0.7,0.5,1,0.8
			C661.6,277.1,661.6,277.2,661.7,277.2z"/>
		<path class="st2" d="M680.4,325.9c0,5.5-0.3,10.9-0.9,16.3c-0.6,5.3-1.6,10.3-2.8,15c-3.5,13-10.4,22.5-20.8,28.6
			c-7.2,4.1-14.8,6.1-22.8,6c-0.4,0-0.9,0-1.3,0c-0.4,0-0.9,0-1.3-0.1c-0.4,0-0.9-0.1-1.3-0.1c-0.9-0.1-1.9-0.2-2.9-0.3
			c-0.4-0.1-0.8-0.1-1.1-0.2c-0.9-0.2-1.8-0.3-2.7-0.5c-1.5-0.4-3-0.9-4.6-1.5s-3.3-1.4-5-2.3v0.4c-11.1-5-19.3-12.6-24.3-23
			c-5.1-10.2-7.7-20.8-8-32.1c-0.3-4.3-0.1-8.7,0.5-13.1c0.6-4.4,1.5-8.7,2.8-12.9c0.2-0.7,0.5-1.4,0.7-2c0.2-0.6,0.4-1.2,0.7-1.8
			c0-0.1,0.1-0.2,0.1-0.3c0.3-0.6,0.5-1.2,0.8-1.8c0,0,0,0,0-0.1c0.3-0.6,0.5-1.1,0.8-1.7c0.1-0.2,0.2-0.4,0.3-0.6
			c0.2-0.4,0.4-0.7,0.6-1.1c0.1-0.2,0.3-0.5,0.4-0.7c0.2-0.5,0.5-0.9,0.8-1.3c0-0.1,0.1-0.2,0.2-0.3c1.7,2.9,3.7,5.5,6,7.9
			c6.8,7.1,15.8,11.9,25.7,13c1.4,0.2,2.8,0.2,4.1,0.2c18.8,0,34.2-14.1,40.8-28.1c0.6-1.3,1.2-2.6,1.6-3.9c0,0,0,0,0-0.1
			c0,0,0.1,0.1,0.1,0.1c0,0,0.1,0.1,0.1,0.1c1.9,2.5,3.5,5.2,4.9,8.3C677.3,302.5,679.9,313.8,680.4,325.9z"/>
	</g>
	<path class="st3" d="M735.4,283.7c-4.9-15.3-12.4-28.2-22.3-38.3c-9.7-9.5-21.5-16-35.2-19.3c-6.1-1.4-12.3-2.2-18.5-2.5
		c4,0.4,8.1,1.1,12.1,2c13.2,3.2,24.6,9.4,34,18.7c9.7,9.8,16.9,22.2,21.7,37.2c4.8,15.2,7.2,31.1,7.2,47.5
		c0,16.5-2.4,32.4-7.2,47.7c-4.8,15.1-12.1,27.7-21.7,37.6V414c-9.4,9.7-20.7,16.2-34,19.5c-13.2,3.1-26.9,3.7-41,1.7
		c-14.1-1.9-27.7-6-40.8-12.1c-13.1-5.9-24.4-13.7-33.8-23.3c-1.1-1-2.1-2.1-3.1-3.2c2.2,2.7,4.6,5.4,7.2,7.9
		c9.6,9.8,21.2,17.8,34.5,23.8c13.4,6.2,27.4,10.4,41.6,12.3c5.6,0.8,11.1,1.1,16.5,1.1c8.7,0,17.2-1,25.5-2.9
		c11.7-2.9,22-8.3,30.8-16.1v0.8l4.3-4.5c9.9-10.2,17.4-23.2,22.3-38.6c4.9-15.5,7.4-31.8,7.4-48.4S740.2,299.1,735.4,283.7z
		 M624.7,389.5c-1.5-0.6-3.1-1.3-4.8-2.1l-3.6-1.8v0.4c-8.8-4.7-15.3-11.4-19.6-20.1c-4.9-9.8-7.5-20.2-7.7-31.1
		c-0.2-4.1-0.1-8.4,0.5-12.6c0.6-4.3,1.5-8.5,2.7-12.5c0.8-2.6,1.8-5.1,3-7.4c-2.3-2.4-4.3-5.1-6-7.9c-0.1,0.1-0.1,0.2-0.2,0.3
		c-0.3,0.4-0.5,0.9-0.8,1.3c-0.1,0.2-0.3,0.5-0.4,0.7c-0.2,0.3-0.4,0.7-0.6,1.1c-0.1,0.2-0.2,0.4-0.3,0.6c-0.3,0.5-0.5,1.1-0.8,1.7
		c0,0,0,0,0,0.1c-0.3,0.6-0.5,1.2-0.8,1.8c0,0.1-0.1,0.2-0.1,0.3c-0.2,0.6-0.5,1.2-0.7,1.8c-0.2,0.7-0.5,1.4-0.7,2
		c-1.2,4.1-2.2,8.4-2.8,12.9c-0.6,4.5-0.8,8.8-0.5,13.1c0.2,11.3,2.9,21.9,8,32.1c5.1,10.3,13.2,18,24.3,23v-0.4
		c1.7,0.9,3.4,1.6,5,2.3s3.2,1.1,4.6,1.5c0.9,0.2,1.8,0.4,2.7,0.5c0.4,0.1,0.8,0.1,1.1,0.2c1,0.1,1.9,0.3,2.9,0.3
		c0.4,0,0.9,0.1,1.3,0.1c0.4,0,0.9,0,1.3,0.1c0.4,0,0.9,0,1.3,0c-1.4-0.2-2.7-0.5-4.1-0.8C627.7,390.5,626.2,390.1,624.7,389.5z
		 M660.5,276.3C660.4,276.2,660.4,276.2,660.5,276.3c-0.5-0.4-1-0.7-1.4-1c-0.5-0.3-0.9-0.6-1.4-0.9h0c-0.5-0.3-0.9-0.6-1.4-0.9
		c-0.5-0.3-1-0.5-1.5-0.8c-0.4-0.2-0.8-0.4-1.2-0.6c-0.2-0.1-0.4-0.2-0.6-0.3c-0.4-0.2-0.8-0.4-1.3-0.6c-0.5-0.2-1.1-0.4-1.6-0.7
		c-2.2-0.8-4.6-1.4-7.1-1.7c-2.5-0.3-4.8-0.5-7.1-0.5c-11.4,0.1-22,3.7-31.9,10.8c-0.7,0.5-1.4,1-2.1,1.5c-0.4,0.3-0.9,0.7-1.3,1
		c-0.1,0.1-0.2,0.1-0.3,0.2c-0.4,0.3-0.8,0.7-1.2,1c-0.3,0.2-0.5,0.5-0.8,0.7c-0.4,0.3-0.7,0.7-1.1,1c-0.1,0.1-0.2,0.2-0.3,0.3
		c-0.3,0.3-0.7,0.6-1,1c-0.2,0.2-0.4,0.4-0.6,0.6c-0.4,0.4-0.8,0.8-1.2,1.3c1.4,2.8,3.1,5.5,5.2,7.9c3.2-4.3,7.2-8.1,11.9-11.4
		c9.5-6.8,19.8-10.3,30.4-10.3c2.1,0.1,4.4,0.2,6.8,0.5c2.3,0.3,4.4,0.8,6.5,1.6c2.2,0.8,4.3,1.8,6.2,2.9c0.2-0.5,0.3-1,0.5-1.5
		c-0.1-0.1-0.1-0.1-0.2-0.2C661.1,276.8,660.8,276.5,660.5,276.3z"/>
	<g class="st4">
		<path class="st1" d="M600.7,221.1c-4.3,2.2-6.2,8.3-7.6,13.7c-1.9,7-3.1,14.5-3.4,22.2c-0.3,7.9,0.2,15.4,1.7,22.3
			c0.6,3.1,1.7,6,3.1,8.7c-0.4-1.2-0.7-2.3-0.9-3.5c-0.8-3.8-1.3-7.7-1.6-11.6c-1.1-13.4,0.8-27,4.6-39.9c3.3-10.9,8-11.8,8-11.8
			C603.3,220.7,602.3,220.6,600.7,221.1z"/>
		<path class="st1" d="M676,224.4c-2.9,8.7-3.2,17.8-3.6,27.4c-0.5,11.8-1,24.1-6.4,35.5c-6.7,14-22,28.1-40.8,28.1
			c-1.4,0-2.7-0.1-4.1-0.2c-14.5-1.6-27.1-11.1-33.5-24.2c5.3,15.8,19.3,27.7,35.6,29.4c0.4,0,0.8,0.1,1.3,0.1
			c20.1,1.5,36.7-13.3,43.7-28c5.4-11.4,5.9-23.6,6.4-35.5c0.4-9.7,0.6-20.5,2.9-29.4c1.6-6.3,4.5-11.1,7.8-12.8
			C681.1,215.1,678,218.2,676,224.4z"/>
	</g>
</g>
</svg>
